# xmcd
#
# Track frame offsets: 
#        150
#        15750
#        33172
#        49068
#        66225
#        79415
#        92441
#        109084
#        121600
#        137364
#        153555
#        168576
#        197352
#
# Disc length: 4504 seconds
#
# Revision: 0
# Processed by: cddbd v1.5.2PL0 Copyright (c) Steve Scherf et al.
# Submitted via: ExactAudioCopy v0.99pb3
#
DISCID=9411960d
DTITLE=Heinrich XIII and the Devilgrass Pickers - 13: the Devil's Dozen 
DTITLE=[DigiCD]
DYEAR=2012
DGENRE=Devilgrass
TTITLE0=Cold Hearted Girl
TTITLE1=My Ride
TTITLE2=Nothing Lasts Forever
TTITLE3=A Ghost in This House
TTITLE4=Fuck Y**
TTITLE5=Hangover
TTITLE6=Trouble Comes My Way
TTITLE7=The Still On the Hill
TTITLE8=In a World That Has Moved On
TTITLE9=I Dreamed I Died
TTITLE10=Whiskey Yodel No. 2
TTITLE11=Back in the Saddle
TTITLE12=The Dark
EXTD=
EXTT0=
EXTT1=
EXTT2=
EXTT3=
EXTT4=
EXTT5=
EXTT6=
EXTT7=
EXTT8=
EXTT9=
EXTT10=
EXTT11=
EXTT12=
PLAYORDER=
